<svg xmlns="http://www.w3.org/2000/svg" xmlns:xlink="http://www.w3.org/1999/xlink" width="666.66" height="133.33" viewBox="0 0 666.66 133.33"><defs><linearGradient id="a" x1="5.16" y1="172.7" x2="56.25" y2="186.76" gradientTransform="translate(0 -80)" gradientUnits="userSpaceOnUse"><stop offset="0" stop-color="#a01428"/><stop offset="1" stop-color="#dc283c"/></linearGradient><linearGradient id="b" x1="34.29" y1="122.28" x2="2.04" y2="166.93" xlink:href="#a"/><linearGradient id="c" x1="63.54" y1="174.56" x2="49.67" y2="122.83" xlink:href="#a"/></defs><path d="M535.7 33.33h17.67V100H535.7zm131 0h-95v15.83h38.5V100h18V49.16h38.5zm-149.17 51h-72.71a3.33 3.33 0 0 1-3.33-3.33V33.33h-17.67v51A16.77 16.77 0 0 0 440.49 100h77zM98.83 0L64 6.17 52 39.34l22.67 27.17 34.83-6.17 12-33.17z" fill="#1e1e1e"/><path d="M110.66 66.83L75.83 73l-12.17 33.17 22.84 27.16 34.67-6.17L133.34 94l-22.67-27.18z" fill="#787878"/><path d="M51.66 97l-25.83 4.5L9 81.33 5.83 90l16.83 20.17L57.49 104l3.17-8.67z" fill="url(#a)"/><path d="M18 56.83l25.83-4.67-6-7-25.67 4.67L0 83l5.83 7z" fill="url(#b)"/><path d="M60.5 72.33L51.66 97l9-1.67 9-24.67-22.83-27-9 1.5z" fill="url(#c)"/><path d="M166.85 33.36h17.67V100h-17.67zm220.31 0h-60.5A16.67 16.67 0 0 0 310 50v33.33A16.67 16.67 0 0 0 326.66 100h60.5a16.67 16.67 0 0 0 16.67-16.67V50a16.67 16.67 0 0 0-16.67-16.67zM386 81a3.33 3.33 0 0 1-3.33 3.33H331a3.33 3.33 0 0 1-3.34-3.33V52.33A3.33 3.33 0 0 1 331 49h51.67a3.33 3.33 0 0 1 3.33 3.33zm-82.5-56h-22.67l-30.5 30.5-30.5-30.5h-23l42 41.83-41.5 41.5h22.5l30.33-30.17 30.33 30.17h23l-41.83-41.67L303.49 25z" fill="#1e1e1e"/></svg>