<svg xmlns="http://www.w3.org/2000/svg" width="645.2" height="80" viewBox="0 0 645.2 80"><path d="M580.9 20h-57v9.5H547V60h10.8V29.5h23.1zm-75.8 0h-36.8a10.07 10.07 0 0 0-9.4 10v30h10.6V48.8h35V60h10.6V30a10 10 0 0 0-10-10zm-35.6 19.4v-8.1a2 2 0 0 1 2-2h31a2 2 0 0 1 2 2v8.1zM272 29.4h43.6V20h-46.3a10 10 0 0 0-10 10v20a10 10 0 0 0 10 10h46.3v-9.4H272a2 2 0 0 1-2-2V31.4a2 2 0 0 1 2-2zm-168-9.35h10.6v40H104zM238.7 20h-36.3a10 10 0 0 0-10 10v20a10 10 0 0 0 10 10h36.3a10 10 0 0 0 10-10V30a10 10 0 0 0-10-10zm-.6 28.7a2 2 0 0 1-2 2h-31a2 2 0 0 1-2-2V31.4a2 2 0 0 1 2-2h31a2 2 0 0 1 2 2zM56.5 0L14.6 7.4 0 47.4 27.4 80l41.9-7.4 14.6-40zM10.9 45.5l10.8-29.6 31-5.5L73 34.5 62.2 64.2l-31 5.5zm176-30.4h-13.6L155 33.3 136.7 15h-13.8l25.2 25.2-25 24.8h13.6l18.2-18.1L173 65.1h13.9L161.8 40zm187.3 33.6a9.94 9.94 0 0 0 8.4-9.4V30a10 10 0 0 0-10-10h-36.2a10 10 0 0 0-10 10v30H337V48.8h24.2l8.9 11.2h12.5l-9.2-11.3zM337 31.4a2 2 0 0 1 2-2h31a2 2 0 0 1 2 2v6.1a1.79 1.79 0 0 1-1.78 1.8H337zm68.3-2.1h43.6V20h-46.3a10 10 0 0 0-10 10v20a10 10 0 0 0 10 10h46.3v-9.3h-43.6a2 2 0 0 1-2-1.9v-4.3l42.8.1v-9l-42.8-.1v-4.1a2 2 0 0 1 1.9-2.1zm196.2 0h43.6V20h-46.2a10 10 0 0 0-10 10v20a10 10 0 0 0 10 10h46.3v-9.3h-43.6a2 2 0 0 1-2-1.9v-4.3l42.8.1v-9l-42.8-.1v-4.1a1.89 1.89 0 0 1 1.67-2.09z" fill="#f5f5f5"/></svg>