<?xml version="1.0" encoding="utf-8"?>
<!-- Generator: Adobe Illustrator 23.0.1, SVG Export Plug-In . SVG Version: 6.00 Build 0)  -->
<svg version="1.1" xmlns="http://www.w3.org/2000/svg" xmlns:xlink="http://www.w3.org/1999/xlink" x="0px" y="0px"
	 viewBox="0 0 725 160" style="enable-background:new 0 0 725 160;" xml:space="preserve">
<style type="text/css">
	.st0{display:none;}
	.st1{display:inline;fill:#B432C8;}
	.st2{display:inline;}
	.st3{display:inline;opacity:0.2;fill:none;stroke:#DC283C;stroke-width:0.5;stroke-miterlimit:10;}
	.st4{display:inline;fill:#F6F6F6;}
	.st5{display:inline;fill:#1E1E1E;}
	.st6{display:inline;fill:#4B4B4B;}
	.st7{display:inline;fill:#787878;}
	.st8{display:inline;fill:#A0A0A0;}
	.st9{display:inline;fill:#DCDCDC;}
	.st10{display:inline;fill:#F5F5F5;}
	.st11{display:inline;fill:#DC283C;}
	.st12{display:inline;fill:#D60D47;}
	.st13{display:inline;fill:#96DC32;}
	.st14{display:inline;fill:#FAC81E;}
	.st15{display:inline;fill:#28B4FA;}
	.st16{display:inline;fill:#FA7800;}
	.st17{display:inline;fill:#00B4A0;}
	.st18{display:inline;fill:#1E64FA;}
	.st19{display:inline;fill:#B32EC4;}
	.st20{display:inline;fill:#90D431;}
	.st21{display:inline;fill:#FFC61B;}
	.st22{display:inline;fill:#2DB8FF;}
	.st23{display:inline;fill:#FF7700;}
	.st24{display:inline;fill:#00B99F;}
	.st25{display:inline;fill:#1B67FF;}
	.st26{display:inline;fill:#A01428;}
	.st27{display:inline;fill:#783282;}
	.st28{display:inline;fill:#50A000;}
	.st29{display:inline;fill:#E68200;}
	.st30{display:inline;fill:#0078DC;}
	.st31{display:inline;fill:#C84600;}
	.st32{display:inline;fill:#00828C;}
	.st33{display:inline;fill:#1E3CBE;}
	.st34{display:inline;fill:url(#SVGID_1_);}
	.st35{display:inline;fill:url(#SVGID_2_);}
	.st36{display:inline;fill:url(#SVGID_3_);}
	.st37{display:inline;fill:url(#SVGID_4_);}
	.st38{display:inline;fill:url(#SVGID_5_);}
	.st39{display:inline;fill:url(#SVGID_6_);}
	.st40{display:inline;fill:url(#SVGID_7_);}
	.st41{display:inline;fill:url(#SVGID_8_);}
	.st42{display:inline;fill:#BD2FA3;}
	.st43{opacity:0.2;fill:none;stroke:#DC283C;stroke-width:0.5;stroke-miterlimit:10;}
	.st44{fill:#1E1E1E;}
	.st45{fill:#FAC81E;}
	.st46{fill:#28B4FA;}
	.st47{fill:#96DC32;}
	.st48{fill:#B432C8;}
	.st49{fill:#787878;}
	.st50{fill:url(#SVGID_9_);}
	.st51{fill:url(#SVGID_10_);}
	.st52{fill:url(#SVGID_11_);}
	.st53{fill:url(#SVGID_12_);}
	.st54{fill:url(#SVGID_13_);}
	.st55{fill:url(#SVGID_14_);}
	.st56{fill:url(#SVGID_15_);}
	.st57{fill:url(#SVGID_16_);}
	.st58{fill:url(#SVGID_17_);}
	.st59{fill:url(#SVGID_18_);}
	.st60{fill:url(#SVGID_19_);}
	.st61{fill:url(#SVGID_20_);}
	.st62{fill:url(#SVGID_21_);}
	.st63{fill:url(#SVGID_22_);}
	.st64{fill:url(#SVGID_23_);}
	.st65{fill:url(#SVGID_24_);}
	.st66{fill:url(#SVGID_25_);}
	.st67{fill:url(#SVGID_26_);}
	.st68{fill:url(#SVGID_27_);}
	.st69{fill:url(#SVGID_28_);}
	.st70{fill:url(#SVGID_29_);}
	.st71{fill:url(#SVGID_30_);}
	.st72{fill:url(#SVGID_31_);}
	.st73{fill:url(#SVGID_32_);}
	.st74{fill:url(#SVGID_33_);}
	.st75{fill:#00B4A0;}
	.st76{fill:url(#SVGID_34_);}
	.st77{fill:url(#SVGID_35_);}
	.st78{fill:url(#SVGID_36_);}
	.st79{fill:url(#SVGID_37_);}
	.st80{fill:url(#SVGID_38_);}
	.st81{fill:url(#SVGID_39_);}
	.st82{fill:#1E64FA;}
	.st83{fill:#FA7800;}
	.st84{fill:url(#SVGID_40_);}
	.st85{fill:url(#SVGID_41_);}
	.st86{fill:url(#SVGID_42_);}
	.st87{fill:url(#SVGID_43_);}
	.st88{fill:url(#SVGID_44_);}
	.st89{fill:url(#SVGID_45_);}
	.st90{fill:url(#SVGID_46_);}
	.st91{fill:url(#SVGID_47_);}
	.st92{fill:url(#SVGID_48_);}
	.st93{fill:url(#SVGID_49_);}
	.st94{fill:url(#SVGID_50_);}
	.st95{fill:url(#SVGID_51_);}
	.st96{fill:url(#SVGID_52_);}
	.st97{fill:url(#SVGID_53_);}
	.st98{fill:url(#SVGID_54_);}
	.st99{fill:url(#SVGID_55_);}
	.st100{fill:url(#SVGID_56_);}
	.st101{fill:url(#SVGID_57_);}
	.st102{fill:url(#SVGID_58_);}
	.st103{fill:url(#SVGID_59_);}
	.st104{fill:url(#SVGID_60_);}
	.st105{fill:url(#SVGID_61_);}
	.st106{fill:url(#SVGID_62_);}
	.st107{fill:url(#SVGID_63_);}
	.st108{fill:url(#SVGID_64_);}
	.st109{fill:url(#SVGID_65_);}
	.st110{fill:url(#SVGID_66_);}
	.st111{fill:#F6F6F6;}
	.st112{fill:url(#SVGID_67_);}
	.st113{fill:url(#SVGID_68_);}
	.st114{fill:url(#SVGID_69_);}
	.st115{fill:url(#SVGID_70_);}
	.st116{fill:url(#SVGID_71_);}
	.st117{fill:url(#SVGID_72_);}
	.st118{fill:url(#SVGID_73_);}
	.st119{fill:url(#SVGID_74_);}
	.st120{fill:url(#SVGID_75_);}
	.st121{fill:url(#SVGID_76_);}
	.st122{fill:url(#SVGID_77_);}
	.st123{fill:url(#SVGID_78_);}
	.st124{fill:url(#SVGID_79_);}
	.st125{fill:url(#SVGID_80_);}
	.st126{fill:url(#SVGID_81_);}
	.st127{fill:url(#SVGID_82_);}
	.st128{fill:url(#SVGID_83_);}
	.st129{fill:url(#SVGID_84_);}
	.st130{fill:url(#SVGID_85_);}
	.st131{fill:url(#SVGID_86_);}
	.st132{fill:url(#SVGID_87_);}
	.st133{fill:url(#SVGID_88_);}
	.st134{fill:url(#SVGID_89_);}
	.st135{fill:url(#SVGID_90_);}
	.st136{fill:url(#SVGID_91_);}
	.st137{fill:url(#SVGID_92_);}
	.st138{fill:url(#SVGID_93_);}
	.st139{fill:#F5F5F5;}
	.st140{fill:url(#SVGID_94_);}
	.st141{fill:url(#SVGID_95_);}
	.st142{fill:url(#SVGID_96_);}
	.st143{fill:url(#SVGID_97_);}
	.st144{fill:url(#SVGID_98_);}
	.st145{fill:url(#SVGID_99_);}
	.st146{fill:url(#SVGID_100_);}
	.st147{fill:url(#SVGID_101_);}
	.st148{fill:url(#SVGID_102_);}
	.st149{fill:url(#SVGID_103_);}
	.st150{fill:url(#SVGID_104_);}
	.st151{fill:url(#SVGID_105_);}
	.st152{fill:url(#SVGID_106_);}
	.st153{fill:url(#SVGID_107_);}
	.st154{fill:url(#SVGID_108_);}
	.st155{fill:url(#SVGID_109_);}
	.st156{fill:url(#SVGID_110_);}
	.st157{fill:url(#SVGID_111_);}
	.st158{fill:url(#SVGID_112_);}
	.st159{fill:url(#SVGID_113_);}
	.st160{fill:url(#SVGID_114_);}
	.st161{fill:url(#SVGID_115_);}
	.st162{fill:url(#SVGID_116_);}
	.st163{fill:url(#SVGID_117_);}
	.st164{fill:url(#SVGID_118_);}
	.st165{fill:url(#SVGID_119_);}
	.st166{fill:url(#SVGID_120_);}
	.st167{fill:url(#SVGID_121_);}
	.st168{fill:url(#SVGID_122_);}
	.st169{fill:url(#SVGID_123_);}
	.st170{fill:url(#SVGID_124_);}
	.st171{fill:url(#SVGID_125_);}
	.st172{fill:url(#SVGID_126_);}
	.st173{fill:url(#SVGID_127_);}
	.st174{fill:url(#SVGID_128_);}
	.st175{fill:url(#SVGID_129_);}
	.st176{fill:url(#SVGID_130_);}
	.st177{fill:url(#SVGID_131_);}
	.st178{fill:url(#SVGID_132_);}
	.st179{fill:url(#SVGID_133_);}
	.st180{fill:url(#SVGID_134_);}
	.st181{fill:url(#SVGID_135_);}
	.st182{fill:url(#SVGID_136_);}
	.st183{fill:url(#SVGID_137_);}
	.st184{fill:url(#SVGID_138_);}
	.st185{fill:url(#SVGID_139_);}
	.st186{fill:url(#SVGID_140_);}
	.st187{fill:url(#SVGID_141_);}
	.st188{fill:url(#SVGID_142_);}
	.st189{fill:url(#SVGID_143_);}
	.st190{fill:url(#SVGID_144_);}
	.st191{fill:url(#SVGID_145_);}
	.st192{fill:url(#SVGID_146_);}
	.st193{fill:url(#SVGID_147_);}
	.st194{fill:url(#SVGID_148_);}
	.st195{fill:url(#SVGID_149_);}
	.st196{fill:url(#SVGID_150_);}
	.st197{fill:url(#SVGID_151_);}
	.st198{fill:url(#SVGID_152_);}
	.st199{fill:url(#SVGID_153_);}
	.st200{fill:url(#SVGID_154_);}
	.st201{fill:url(#SVGID_155_);}
	.st202{fill:url(#SVGID_156_);}
	.st203{fill:url(#SVGID_157_);}
	.st204{fill:url(#SVGID_158_);}
	.st205{fill:url(#SVGID_159_);}
	.st206{fill:url(#SVGID_160_);}
	.st207{fill:url(#SVGID_161_);}
	.st208{fill:url(#SVGID_162_);}
	.st209{fill:url(#SVGID_163_);}
	.st210{fill:url(#SVGID_164_);}
	.st211{fill:url(#SVGID_165_);}
	.st212{fill:url(#SVGID_166_);}
	.st213{fill:url(#SVGID_167_);}
	.st214{fill:url(#SVGID_168_);}
	.st215{fill:url(#SVGID_169_);}
	.st216{fill:url(#SVGID_170_);}
	.st217{fill:url(#SVGID_171_);}
	.st218{fill:url(#SVGID_172_);}
	.st219{fill:url(#SVGID_173_);}
	.st220{fill:url(#SVGID_174_);}
	.st221{fill:url(#SVGID_175_);}
	.st222{fill:url(#SVGID_176_);}
	.st223{fill:url(#SVGID_177_);}
	.st224{fill:url(#SVGID_178_);}
	.st225{fill:url(#SVGID_179_);}
	.st226{fill:url(#SVGID_180_);}
	.st227{fill:url(#SVGID_181_);}
	.st228{fill:url(#SVGID_182_);}
	.st229{fill:url(#SVGID_183_);}
	.st230{fill:url(#SVGID_184_);}
	.st231{fill:url(#SVGID_185_);}
	.st232{fill:url(#SVGID_186_);}
	.st233{fill:url(#SVGID_187_);}
	.st234{fill:url(#SVGID_188_);}
	.st235{fill:url(#SVGID_189_);}
	.st236{fill:url(#SVGID_190_);}
	.st237{fill:url(#SVGID_191_);}
	.st238{fill:url(#SVGID_192_);}
	.st239{fill:url(#SVGID_193_);}
	.st240{fill:url(#SVGID_194_);}
	.st241{fill:url(#SVGID_195_);}
	.st242{fill:url(#SVGID_196_);}
	.st243{fill:url(#SVGID_197_);}
	.st244{fill:url(#SVGID_198_);}
	.st245{fill:url(#SVGID_199_);}
	.st246{fill:url(#SVGID_200_);}
	.st247{fill:url(#SVGID_201_);}
	.st248{fill:url(#SVGID_202_);}
	.st249{fill:url(#SVGID_203_);}
	.st250{fill:url(#SVGID_204_);}
	.st251{fill:url(#SVGID_205_);}
	.st252{fill:url(#SVGID_206_);}
	.st253{fill:url(#SVGID_207_);}
	.st254{fill:url(#SVGID_208_);}
	.st255{fill:url(#SVGID_209_);}
	.st256{fill:url(#SVGID_210_);}
	.st257{fill:url(#SVGID_211_);}
	.st258{fill:url(#SVGID_212_);}
	.st259{fill:url(#SVGID_213_);}
	.st260{fill:url(#SVGID_214_);}
	.st261{fill:url(#SVGID_215_);}
	.st262{fill:url(#SVGID_216_);}
	.st263{fill:url(#SVGID_217_);}
	.st264{fill:url(#SVGID_218_);}
	.st265{fill:url(#SVGID_219_);}
	.st266{fill:url(#SVGID_220_);}
	.st267{fill:url(#SVGID_221_);}
	.st268{fill:url(#SVGID_222_);}
	.st269{fill:url(#SVGID_223_);}
	.st270{fill:url(#SVGID_224_);}
	.st271{fill:url(#SVGID_225_);}
	.st272{fill:url(#SVGID_226_);}
	.st273{fill:url(#SVGID_227_);}
	.st274{fill:url(#SVGID_228_);}
	.st275{fill:url(#SVGID_229_);}
	.st276{fill:url(#SVGID_230_);}
	.st277{fill:url(#SVGID_231_);}
	.st278{fill:url(#SVGID_232_);}
	.st279{fill:url(#SVGID_233_);}
	.st280{fill:url(#SVGID_234_);}
	.st281{fill:url(#SVGID_235_);}
	.st282{fill:url(#SVGID_236_);}
	.st283{fill:url(#SVGID_237_);}
	.st284{fill:url(#SVGID_238_);}
	.st285{fill:url(#SVGID_239_);}
	.st286{fill:#4B4B4B;}
	.st287{fill:#A0A0A0;}
	.st288{fill:#DCDCDC;}
	.st289{fill:#DC283C;}
	.st290{fill:#D60D47;}
	.st291{fill:#B32EC4;}
	.st292{fill:#90D431;}
	.st293{fill:#FFC61B;}
	.st294{fill:#2DB8FF;}
	.st295{fill:#EC6839;}
	.st296{fill:#00B99F;}
	.st297{fill:#007BC4;}
	.st298{fill:#B8103D;}
	.st299{fill:#783C7F;}
	.st300{fill:#7EA532;}
	.st301{fill:#D6A91A;}
	.st302{fill:#4498C3;}
	.st303{fill:#CA6615;}
	.st304{fill:#249886;}
	.st305{fill:#325493;}
	.st306{fill:#A01428;}
	.st307{fill:#783282;}
	.st308{fill:#50A000;}
	.st309{fill:#E68200;}
	.st310{fill:#0078DC;}
	.st311{fill:#C84600;}
	.st312{fill:#00828C;}
	.st313{fill:#1E3CBE;}
	.st314{fill:url(#SVGID_240_);}
	.st315{fill:url(#SVGID_241_);}
	.st316{fill:url(#SVGID_242_);}
	.st317{fill:url(#SVGID_243_);}
	.st318{fill:url(#SVGID_244_);}
	.st319{fill:url(#SVGID_245_);}
	.st320{fill:url(#SVGID_246_);}
	.st321{fill:url(#SVGID_247_);}
	.st322{fill:url(#SVGID_248_);}
	.st323{fill:url(#SVGID_249_);}
	.st324{fill:url(#SVGID_250_);}
	.st325{fill:url(#SVGID_251_);}
	.st326{fill:url(#SVGID_252_);}
	.st327{fill:url(#SVGID_253_);}
	.st328{fill:url(#SVGID_254_);}
	.st329{fill:url(#SVGID_255_);}
	.st330{fill:url(#SVGID_256_);}
	.st331{fill:url(#SVGID_257_);}
	.st332{fill:url(#SVGID_258_);}
	.st333{fill:url(#SVGID_259_);}
	.st334{fill:url(#SVGID_260_);}
</style>
<g id="Ebene_3" class="st0">
</g>
<g id="Ebene_4" class="st0">
</g>
<g id="Ebene_1" class="st0">
</g>
<g id="Ebene_2">
	<g>
		<polygon class="st47" points="622,60 565,60 565,69.5 588.1,69.5 588.1,100 598.9,100 598.9,69.5 622,69.5 		"/>
		<path class="st47" d="M546.2,60H510h-0.6v0c-5.2,0.3-9.4,4.7-9.4,10v30h10.6V88.8h35V100h10.6V70C556.2,64.5,551.8,60,546.2,60z
			 M510.6,79.4v-8.1c0-1.1,0.9-2,2-2h31c1.1,0,2,0.9,2,2v8.1H510.6z"/>
		<path class="st47" d="M313.1,69.4h31h12.6h0V60h-10h-34.4h-1.9c-5.5,0-10,4.5-10,10v20c0,5.5,4.5,10,10,10h1.9h34.4h10v-9.4h0
			h-12.6h-31c-1.1,0-2-0.9-2-2V71.4C311.1,70.3,312,69.4,313.1,69.4z"/>
		
			<rect x="130.4" y="74.7" transform="matrix(-1.836970e-16 1 -1 -1.836970e-16 230.4044 -70.388)" class="st44" width="40" height="10.6"/>
		<path class="st44" d="M279.8,60h-36.3c-5.5,0-10,4.5-10,10v20c0,5.5,4.5,10,10,10h36.3c5.5,0,10-4.5,10-10V70
			C289.8,64.5,285.3,60,279.8,60z M279.2,88.6c0,1.1-0.9,2-2,2h-31c-1.1,0-2-0.9-2-2V71.4c0-1.1,0.9-2,2-2h31c1.1,0,2,0.9,2,2V88.6z
			"/>
		<g>
			<linearGradient id="SVGID_1_" gradientUnits="userSpaceOnUse" x1="109.4755" y1="103.3251" x2="104.5214" y2="39.9123">
				<stop  offset="0" style="stop-color:#50A000"/>
				<stop  offset="1" style="stop-color:#96DC32"/>
			</linearGradient>
			<polygon style="fill:url(#SVGID_1_);" points="114.1,74.5 114.1,74.5 114.1,74.5 114.1,74.5 103.3,104.1 114.2,102.2 125,72.6 
				97.6,40 86.8,41.9 			"/>
			<linearGradient id="SVGID_2_" gradientUnits="userSpaceOnUse" x1="49.3945" y1="90.4869" x2="106.532" y2="118.5602">
				<stop  offset="0" style="stop-color:#50A000"/>
				<stop  offset="1" style="stop-color:#96DC32"/>
			</linearGradient>
			<polygon style="fill:url(#SVGID_2_);" points="103.3,104.1 103.3,104.1 72.3,109.6 52,85.5 48.3,95.9 68.5,120 110.4,112.6 
				114.2,102.2 			"/>
			<linearGradient id="SVGID_3_" gradientUnits="userSpaceOnUse" x1="82.0947" y1="38.4413" x2="44.4434" y2="92.2761">
				<stop  offset="0" style="stop-color:#50A000"/>
				<stop  offset="1" style="stop-color:#96DC32"/>
			</linearGradient>
			<polygon style="fill:url(#SVGID_3_);" points="62.8,55.9 93.9,50.4 86.8,41.9 55.7,47.4 41.2,87.4 48.3,95.9 			"/>
		</g>
		<polygon class="st44" points="228,55 214.4,55 196.1,73.3 177.8,55 164,55 189.2,80.1 164.2,105 177.8,105 196,86.9 214.1,105 
			228,105 202.9,80 		"/>
		<path class="st47" d="M415.3,88.6c4.6-0.7,8.2-4.6,8.4-9.4c0-0.2,0-9.3,0-9.3c0-5.5-4.5-10-10-10h-35.6h-0.6c-5.5,0-10,4.5-10,10
			v30h10.6V88.8h24.2l8.9,11.2h12.5l-9.2-11.3C414.8,88.7,415.1,88.7,415.3,88.6z M378.1,71.4c0-1.1,0.9-2,2-2h31c1.1,0,2,0.9,2,2
			c0,0,0,6,0,6.1c0,1-0.8,1.8-1.8,1.8h-33.2V71.4z"/>
		<path class="st47" d="M446.4,69.3H490V60h-44.4h-1.9c-5.5,0-10,4.5-10,10v20c0,5.5,4.5,10,10,10H490v-9.3h-43.6
			c-1.1,0-2-0.9-2-1.9v-4.3l42.8,0.1v-9l-42.8-0.1v-4.1C444.4,70.2,445.3,69.3,446.4,69.3z"/>
		<path class="st47" d="M642.6,69.3h43.6V60h-44.4H640c-5.5,0-10,4.5-10,10v20c0,5.5,4.5,10,10,10h1.9h34.4h10v-9.3h-43.6
			c-1.1,0-2-0.9-2-1.9v-4.3l42.8,0.1v-9l-42.8-0.1v-4.1C640.6,70.2,641.5,69.3,642.6,69.3z"/>
	</g>
</g>
</svg>
