<svg xmlns="http://www.w3.org/2000/svg" xmlns:xlink="http://www.w3.org/1999/xlink" width="400" height="80" viewBox="0 0 400 80"><defs><linearGradient id="a" x1="3.1" y1="243.62" x2="33.75" y2="252.06" gradientTransform="translate(0 -188)" gradientUnits="userSpaceOnUse"><stop offset="0" stop-color="#a01428"/><stop offset="1" stop-color="#dc283c"/></linearGradient><linearGradient id="b" x1="20.58" y1="213.37" x2="1.23" y2="240.16" xlink:href="#a"/><linearGradient id="c" x1="38.13" y1="244.74" x2="29.81" y2="213.7" xlink:href="#a"/></defs><path d="M321.42 20H332v40h-10.6zM400 20h-57v9.5h23.1V60h10.8V29.5H400zm-89.5 30.6h-43.6a2 2 0 0 1-2-2V20h-10.6v30.6a10.06 10.06 0 0 0 10 9.4h46.2zM59.3 0L38.4 3.7l-7.2 19.9 13.6 16.3 20.9-3.7 7.2-19.9z" fill="#f5f5f5"/><path d="M66.4 40.1l-20.9 3.7-7.3 19.9L51.9 80l20.8-3.7L80 56.4z" fill="#787878"/><path d="M31 58.2l-15.5 2.7L5.4 48.8 3.5 54l10.1 12.1 20.9-3.7 1.9-5.2z" fill="url(#a)"/><path d="M10.8 34.1l15.5-2.8-3.6-4.2-15.4 2.8L0 49.8 3.5 54z" fill="url(#b)"/><path d="M36.3 43.4L31 58.2l5.4-1 5.4-14.8-13.7-16.2-5.4.9z" fill="url(#c)"/><path d="M100.11 20h10.6v40h-10.6zm132.19 0H196a10 10 0 0 0-10 10v20a10 10 0 0 0 10 10h36.3a10 10 0 0 0 10-10V30a10 10 0 0 0-10-10zm-.7 28.6a2 2 0 0 1-2 2h-31a2 2 0 0 1-2-2V31.4a2 2 0 0 1 2-2h31a2 2 0 0 1 2 2zM182.1 15h-13.6l-18.3 18.3L131.9 15h-13.8l25.2 25.1L118.4 65h13.5l18.2-18.1L168.3 65h13.8L157 40z" fill="#f5f5f5"/></svg>