<svg viewBox="0 0 1300.74 501.39" xmlns="http://www.w3.org/2000/svg" xmlns:xlink="http://www.w3.org/1999/xlink"><linearGradient id="a"><stop offset="0" stop-color="#a01428"/><stop offset="1" stop-color="#dc283c"/></linearGradient><linearGradient id="b" gradientTransform="translate(.02 .01)" gradientUnits="userSpaceOnUse" x1=".25" x2="1305.77" xlink:href="#a" y1="250.69" y2="250.69"/><linearGradient id="c" x1="1069.81" x2="1096.54" xlink:href="#b" y1="101.86" y2="413.14"/><linearGradient id="d" x1="846.25" x2="724.48" xlink:href="#b" y1="223.37" y2="3.34"/><linearGradient id="e" x1="218.18" x2="245.58" xlink:href="#b" y1="87.52" y2="406.62"/><linearGradient id="f" gradientUnits="userSpaceOnUse" x1="165.1" x2="212.66" xlink:href="#a" y1="20.96" y2="686.8"/><linearGradient id="g" x1="149.84" x2="12" xlink:href="#b" y1="486.82" y2="237.74"/><path d="m.27.7h1300.2v500h-1300.2z" fill="url(#b)" transform="matrix(.99999945 -.0010472 .0010472 .99999945 -.27 .7)"/><path d="m1300.48.69v498.69h-435.89l182.75-498.69z" fill="url(#c)"/><path d="m1026.06.44-52.49 144.21-377.07 66.49-176.8-210.7z" fill="url(#d)"/><path d="m484.44 237.46-95.81 263.23h-388.36v-500.15h285.37z" fill="url(#e)"/><path d="m387.98 354.15-53.28 146.39h-334.43v-500.1h90.91z" fill="url(#f)"/><path d="m190.38 276.58-81.33 223.46h-108.78v-450.03z" fill="url(#g)"/></svg>