<svg xmlns="http://www.w3.org/2000/svg" width="400" height="80" viewBox="0 0 400 80"><path d="M321.42 20H332v40h-10.6zM400 20h-57v9.5h23.1V60h10.8V29.5H400zm-89.5 30.6h-43.6a2 2 0 0 1-2-2V20h-10.6v30.6a10.06 10.06 0 0 0 10 9.4h46.2zM59.3 0L38.4 3.7l-7.2 19.9 13.6 16.3 20.9-3.7 7.2-19.9zm7.1 40.1l-20.9 3.7-7.3 19.9L51.9 80l20.8-3.7L80 56.4zM28.1 26.2L7.2 29.9 0 49.8l13.6 16.3 20.9-3.7 7.3-19.9zM5.4 48.8L10.8 34l15.5-2.7 10.1 12L31 58.2l-15.5 2.7zM100.11 20h10.6v40h-10.6zm132.19 0H196a10 10 0 0 0-10 10v20a10 10 0 0 0 10 10h36.3a10 10 0 0 0 10-10V30a10 10 0 0 0-10-10zm-.7 28.6a2 2 0 0 1-2 2h-31a2 2 0 0 1-2-2V31.4a2 2 0 0 1 2-2h31a2 2 0 0 1 2 2zM182.1 15h-13.6l-18.3 18.3L131.9 15h-13.8l25.2 25.1L118.4 65h13.5l18.2-18.1L168.3 65h13.8L157 40z" fill="#787878"/></svg>