<svg height="600" viewBox="0 0 320 600" width="320" xmlns="http://www.w3.org/2000/svg" xmlns:xlink="http://www.w3.org/1999/xlink"><clipPath id="a"><path d="m0 100h320v500h-320z"/></clipPath><linearGradient id="b" gradientTransform="matrix(1 0 0 -1 0 664)" gradientUnits="userSpaceOnUse" x1="312.46" x2="280.29" y1="123.96" y2="524.82"><stop offset="0" stop-color="#4b4b4b"/><stop offset="1" stop-color="#1e1e1e"/></linearGradient><linearGradient id="c" x1="183.64" x2="-138.04" xlink:href="#b" y1="490.51" y2="262.86"/><linearGradient id="d" x1="-69.59" x2="299.11" xlink:href="#b" y1="203.49" y2="25.33"/><path d="m0 0h320v600h-320z" fill="#1e1e1e"/><g clip-path="url(#a)" opacity=".5"><path d="m341.19 358.26-68.13 187.21 68.8-12.14 68.14-187.2-173-206.13-68.81 12.13z" fill="url(#b)"/><path d="m16.94 240.25 196.2-34.59-44.91-53.53-196.23 34.59-92 252.86 44.91 53.53 92-252.86z" fill="url(#c)"/><path d="m273.06 545.47-196.2 34.59-128-152.61-23.9 65.66 128.04 152.61 265-46.72 23.89-65.66-68.8 12.14z" fill="url(#d)"/></g></svg>