<svg xmlns="http://www.w3.org/2000/svg" xmlns:xlink="http://www.w3.org/1999/xlink" width="645" height="80" viewBox="0 0 645 80"><defs><linearGradient id="a" x1="68.3" y1="251.32" x2="63.35" y2="187.91" gradientTransform="translate(0 -188)" gradientUnits="userSpaceOnUse"><stop offset="0" stop-color="#50a000"/><stop offset="1" stop-color="#96dc32"/></linearGradient><linearGradient id="b" x1="8.19" y1="238.49" x2="65.33" y2="266.56" xlink:href="#a"/><linearGradient id="c" x1="40.91" y1="186.45" x2="3.26" y2="240.29" xlink:href="#a"/></defs><path d="M580.8 20h-57v9.5h23.1V60h10.8V29.5h23.1zM505 20h-36.8a10.07 10.07 0 0 0-9.4 10v30h10.6V48.8h35V60H515V30a10 10 0 0 0-10-10zm-35.6 19.4v-8.1a2 2 0 0 1 2-2h31a2 2 0 0 1 2 2v8.1zm-197.5-10h43.6V20h-46.2a10 10 0 0 0-10 10v20a10 10 0 0 0 10 10h46.2v-9.4h-43.6a2 2 0 0 1-2-2V31.4a2 2 0 0 1 2-2z" fill="#96dc32"/><path d="M103.9 20h10.6v40h-10.6zm134.7 0h-36.3a10 10 0 0 0-10 10v20a10 10 0 0 0 10 10h36.3a10 10 0 0 0 10-10V30a10 10 0 0 0-10-10zm-.6 28.6a2 2 0 0 1-2 2h-31a2 2 0 0 1-2-2V31.4a2 2 0 0 1 2-2h31a2 2 0 0 1 2 2z" fill="#f5f5f5"/><path d="M72.9 34.5L62.1 64.1 73 62.2l10.8-29.6L56.4 0 45.6 1.9z" fill="url(#a)"/><path d="M62.1 64.1l-31 5.5-20.3-24.1-3.7 10.4L27.3 80l41.9-7.4L73 62.2z" fill="url(#b)"/><path d="M21.6 15.9l31.1-5.5-7.1-8.5-31.1 5.5L0 47.4l7.1 8.5z" fill="url(#c)"/><path d="M186.8 15h-13.6l-18.3 18.3L136.6 15h-13.8L148 40.1 123 65h13.6l18.2-18.1L172.9 65h13.9l-25.1-25z" fill="#f5f5f5"/><path d="M374.1 48.6a9.94 9.94 0 0 0 8.4-9.4v-9.3a10 10 0 0 0-10-10h-36.2a10 10 0 0 0-10 10v30h10.6V48.8h24.2L370 60h12.5l-9.2-11.3a2 2 0 0 0 .8-.1zm-37.2-17.2a2 2 0 0 1 2-2h31a2 2 0 0 1 2 2v6.1a1.79 1.79 0 0 1-1.78 1.8H336.9zm68.3-2.1h43.6V20h-46.3a10 10 0 0 0-10 10v20a10 10 0 0 0 10 10h46.3v-9.3h-43.6a2 2 0 0 1-2-1.9v-4.3l42.8.1v-9l-42.8-.1v-4.1a2 2 0 0 1 1.9-2.1zm196.2 0H645V20h-46.2a10 10 0 0 0-10 10v20a10 10 0 0 0 10 10H645v-9.3h-43.6a2 2 0 0 1-2-1.9v-4.3l42.8.1v-9l-42.8-.1v-4.1a2 2 0 0 1 1.9-2.1z" fill="#96dc32"/></svg>