<svg xmlns="http://www.w3.org/2000/svg" xmlns:xlink="http://www.w3.org/1999/xlink" width="666.68" height="150.18" viewBox="0 0 666.68 150.18"><defs><linearGradient id="a" x1="5.16" y1="172.7" x2="56.25" y2="186.76" gradientTransform="translate(0 -80)" gradientUnits="userSpaceOnUse"><stop offset="0" stop-color="#a01428"/><stop offset="1" stop-color="#dc283c"/></linearGradient><linearGradient id="b" x1="34.29" y1="122.28" x2="2.04" y2="166.93" xlink:href="#a"/><linearGradient id="c" x1="63.54" y1="174.56" x2="49.67" y2="122.83" xlink:href="#a"/></defs><path d="M535.7 33.33h17.67V100H535.7zm131 0h-95v15.83h38.5V100h18V49.16h38.5zm-149.17 51h-72.71a3.33 3.33 0 0 1-3.33-3.33V33.33h-17.67v51A16.77 16.77 0 0 0 440.49 100h77z" fill="#f5f5f5"/><path d="M530.5 137.16v12.5h-6.83v-32.33h9.5a17.46 17.46 0 0 1 9.83 2.33 9.3 9.3 0 0 1-2.83 15.83c4.83 7.33 8 12 9.5 14.17H542l-7.67-12.5zm0-5.67h2.17a7.62 7.62 0 0 0 4.83-1.17 4.45 4.45 0 0 0 .39-6.28 3.59 3.59 0 0 0-.39-.39 9.1 9.1 0 0 0-4.83-1h-2v8.83zm59.17 1.83c0 5.33-1.33 9.5-4 12.33a17.42 17.42 0 0 1-23 0c-2.67-2.83-4-7-4-12.33s1.33-9.5 4-12.33a17.42 17.42 0 0 1 23 0c2.67 2.83 4 7.01 4 12.33zm-23.67 0a13.65 13.65 0 0 0 2 8.17 7.22 7.22 0 0 0 6.17 2.67c5.5 0 8.17-3.67 8.17-11s-2.67-11-8.17-11A7.32 7.32 0 0 0 568 125a16.05 16.05 0 0 0-2 8.32zm63.5-16.17v21a11.65 11.65 0 0 1-1.67 6.33 10.38 10.38 0 0 1-4.67 4.17 15.73 15.73 0 0 1-7.17 1.5 13.57 13.57 0 0 1-9.67-3.17 11.29 11.29 0 0 1-3.5-8.83v-20.83h6.83v19.83a8.36 8.36 0 0 0 1.5 5.5 6.23 6.23 0 0 0 5 1.67 6.14 6.14 0 0 0 4.83-1.83 8.36 8.36 0 0 0 1.5-5.5v-19.83zm37.17 10.17a10 10 0 0 1-3.33 8 14.15 14.15 0 0 1-9.33 2.83h-3v11.5h-6.83v-32.33h10.33a14.13 14.13 0 0 1 9 2.5c2.17 1.5 3.17 4.17 3.17 7.5zm-15.5 5h2.33a7.09 7.09 0 0 0 4.67-1.33 4.42 4.42 0 0 0 1.5-3.67 4.26 4.26 0 0 0-1.33-3.5 5.93 5.93 0 0 0-4.17-1.17H651v9.67zm-151.67-1h9.5v16.83a41.91 41.91 0 0 1-5.83 1.5 31.63 31.63 0 0 1-5.67.33 14.3 14.3 0 0 1-11.17-4.33c-2.5-2.83-3.83-7-3.83-12.33s1.5-9.32 4.5-12.17 7.17-4.33 12.5-4.33a24.34 24.34 0 0 1 9.67 2l-2.33 5.5a16.43 16.43 0 0 0-7.33-1.83 9.19 9.19 0 0 0-7.17 3 11.32 11.32 0 0 0-2.67 8 12.37 12.37 0 0 0 2.17 8 7.62 7.62 0 0 0 6.33 2.83 19.11 19.11 0 0 0 4.33-.5v-7.67h-2.83v-4.83z" fill="#787878"/><path d="M98.83 0L64 6.17 52 39.34l22.67 27.17 34.83-6.17 12-33.17z" fill="#f5f5f5"/><path d="M110.66 66.83L75.83 73l-12.17 33.17 22.84 27.16 34.67-6.17L133.34 94l-22.67-27.18z" fill="#787878"/><path d="M51.66 97l-25.83 4.5L9 81.33 5.83 90l16.83 20.17L57.49 104l3.17-8.67z" fill="url(#a)"/><path d="M18 56.83l25.83-4.67-6-7-25.67 4.67L0 83l5.83 7z" fill="url(#b)"/><path d="M60.5 72.33L51.66 97l9-1.67 9-24.67-22.83-27-9 1.5z" fill="url(#c)"/><path d="M166.85 33.36h17.67V100h-17.67zm220.31 0h-60.5A16.67 16.67 0 0 0 310 50v33.33A16.67 16.67 0 0 0 326.66 100h60.5a16.67 16.67 0 0 0 16.67-16.67V50a16.67 16.67 0 0 0-16.67-16.67zM386 81a3.33 3.33 0 0 1-3.33 3.33H331a3.33 3.33 0 0 1-3.34-3.33V52.33A3.33 3.33 0 0 1 331 49h51.67a3.33 3.33 0 0 1 3.33 3.33zm-82.5-56h-22.67l-30.5 30.5-30.5-30.5h-23l42 41.83-41.5 41.5h22.5l30.33-30.17 30.33 30.17h23l-41.83-41.67L303.49 25z" fill="#f5f5f5"/></svg>